<?xml version="1.0" encoding="UTF-8"?>
<svg version="1.1" xmlns="http://www.w3.org/2000/svg" width="512" height="512">
<path d="M0 0 C0.74306396 0.00054382 1.48612793 0.00108765 2.25170898 0.00164795 C27.96630708 0.08778593 50.9963116 6.10540576 73.5625 18.375 C75.13257813 19.20644531 75.13257813 19.20644531 76.734375 20.0546875 C87.46907204 25.99000941 97.02788009 33.59542876 105.5625 42.375 C109.20480431 40.83434714 111.55212422 38.6154877 114.375 35.875 C140.47242281 11.48530193 177.09997157 -0.11514092 212.25 0.0625 C212.99917694 0.06432281 213.74835388 0.06614563 214.52023315 0.06802368 C225.78862568 0.11416312 236.59576491 0.63054965 247.5625 3.375 C248.24940918 3.54128906 248.93631836 3.70757812 249.64404297 3.87890625 C279.38288212 11.23023293 308.20914229 28.45095568 327.5625 52.375 C328.71878906 53.79232422 328.71878906 53.79232422 329.8984375 55.23828125 C344.15695769 73.04061815 354.19150108 93.18840273 359.5625 115.375 C360.04203125 117.29119141 360.04203125 117.29119141 360.53125 119.24609375 C365.06322794 139.81991475 364.65700414 164.97635791 359.5625 185.375 C359.40152832 186.05127441 359.24055664 186.72754883 359.07470703 187.42431641 C352.83044999 213.16313194 339.50179864 236.87615016 320.5625 255.375 C322.10315286 259.01730431 324.3220123 261.36462422 327.0625 264.1875 C337.23862165 275.0761362 344.41889788 287.87938477 350.5625 301.375 C351.38041016 303.15970703 351.38041016 303.15970703 352.21484375 304.98046875 C360.03721186 323.23266101 362.79684925 342.02926217 362.8125 361.75 C362.81351212 362.8924971 362.81351212 362.8924971 362.81454468 364.05807495 C362.79852815 375.43085486 362.33281526 386.3049096 359.5625 397.375 C359.39621094 398.06190918 359.22992188 398.74881836 359.05859375 399.45654297 C351.70726707 429.19538212 334.48654432 458.02164229 310.5625 477.375 C309.14517578 478.53128906 309.14517578 478.53128906 307.69921875 479.7109375 C289.89688185 493.96945769 269.74909727 504.00400108 247.5625 509.375 C245.64630859 509.85453125 245.64630859 509.85453125 243.69140625 510.34375 C208.57547234 518.08713141 170.7940662 511.35609747 139.5625 494.375 C138.51578125 493.82070313 137.4690625 493.26640625 136.390625 492.6953125 C125.65592796 486.75999059 116.09711991 479.15457124 107.5625 470.375 C103.92019569 471.91565286 101.57287578 474.1345123 98.75 476.875 C72.65257719 501.26469807 36.02502843 512.86514092 0.875 512.6875 C-0.24876541 512.68476578 -0.24876541 512.68476578 -1.39523315 512.68197632 C-12.66506686 512.63583098 -23.4686054 512.11445093 -34.4375 509.375 C-35.11377441 509.21402832 -35.79004883 509.05305664 -36.48681641 508.88720703 C-59.50061395 503.30404151 -80.66965374 491.93952033 -98.4375 476.375 C-99.63826172 475.35599609 -99.63826172 475.35599609 -100.86328125 474.31640625 C-105.8572128 470.010714 -110.28010314 465.48911999 -114.4375 460.375 C-115.19804688 459.45203125 -115.95859375 458.5290625 -116.7421875 457.578125 C-138.73117676 430.32948408 -149.92648253 397.60831661 -149.75 362.6875 C-149.74817719 361.93832306 -149.74635437 361.18914612 -149.74447632 360.41726685 C-149.69833098 349.14743314 -149.17695093 338.3438946 -146.4375 327.375 C-146.27652832 326.69872559 -146.11555664 326.02245117 -145.94970703 325.32568359 C-139.70544999 299.58686806 -126.37679864 275.87384984 -107.4375 257.375 C-108.97815286 253.73269569 -111.1970123 251.38537578 -113.9375 248.5625 C-124.11362165 237.6738638 -131.29389788 224.87061523 -137.4375 211.375 C-137.98277344 210.18519531 -138.52804688 208.99539062 -139.08984375 207.76953125 C-146.91221186 189.51733899 -149.67184925 170.72073783 -149.6875 151 C-149.68817474 150.23833527 -149.68884949 149.47667053 -149.68954468 148.69192505 C-149.67352815 137.31914514 -149.20781526 126.4450904 -146.4375 115.375 C-146.27121094 114.68809082 -146.10492188 114.00118164 -145.93359375 113.29345703 C-138.57876042 83.54043221 -121.35650207 54.74980479 -97.4375 35.375 C-96.51582031 34.61574219 -95.59414062 33.85648438 -94.64453125 33.07421875 C-67.50059555 11.16388949 -34.80327422 -0.09634057 0 0 Z " fill="#FEDD33" transform="translate(149.4375,-0.37499999999999994)"/>
<path d="M0 0 C0.74306396 0.00054382 1.48612793 0.00108765 2.25170898 0.00164795 C27.96630708 0.08778593 50.9963116 6.10540576 73.5625 18.375 C75.13257813 19.20644531 75.13257813 19.20644531 76.734375 20.0546875 C87.46907204 25.99000941 97.02788009 33.59542876 105.5625 42.375 C109.20480431 40.83434714 111.55212422 38.6154877 114.375 35.875 C140.47242281 11.48530193 177.09997157 -0.11514092 212.25 0.0625 C212.99917694 0.06432281 213.74835388 0.06614563 214.52023315 0.06802368 C225.78862568 0.11416312 236.59576491 0.63054965 247.5625 3.375 C248.24940918 3.54128906 248.93631836 3.70757812 249.64404297 3.87890625 C279.38288212 11.23023293 308.20914229 28.45095568 327.5625 52.375 C328.71878906 53.79232422 328.71878906 53.79232422 329.8984375 55.23828125 C344.15695769 73.04061815 354.19150108 93.18840273 359.5625 115.375 C360.04203125 117.29119141 360.04203125 117.29119141 360.53125 119.24609375 C365.06322794 139.81991475 364.65700414 164.97635791 359.5625 185.375 C359.40152832 186.05127441 359.24055664 186.72754883 359.07470703 187.42431641 C352.50287846 214.51338113 338.0358374 239.450473 317.5625 258.375 C316.98628906 258.90996094 316.41007812 259.44492187 315.81640625 259.99609375 C285.37931657 287.39580234 246.65010046 302.14290531 205.5625 300.375 C167.62693069 298.17686421 135.00952689 283.47846613 107.5625 257.375 C75.56050359 227.513106 36.84632867 211.9477054 -7.15234375 212.99609375 C-41.64788614 214.43059747 -75.38506621 228.70373221 -100.3515625 252.5625 C-102.31460244 254.26821261 -104.0642554 255.34408832 -106.4375 256.375 C-131.01397824 233.9830976 -146.23871905 200.25700433 -149.4375 167.375 C-149.67233113 161.91909002 -149.6831665 156.46043268 -149.6875 151 C-149.68817474 150.23833527 -149.68884949 149.47667053 -149.68954468 148.69192505 C-149.67352815 137.31914514 -149.20781526 126.4450904 -146.4375 115.375 C-146.27121094 114.68809082 -146.10492188 114.00118164 -145.93359375 113.29345703 C-138.57876042 83.54043221 -121.35650207 54.74980479 -97.4375 35.375 C-96.51582031 34.61574219 -95.59414062 33.85648438 -94.64453125 33.07421875 C-67.50059555 11.16388949 -34.80327422 -0.09634057 0 0 Z " fill="#4A4080" transform="translate(149.4375,-0.37499999999999994)"/>
<path d="M0 0 C4.58940046 3.64916512 8.96314965 7.5325014 13.25390625 11.52734375 C15.37611493 13.52065631 15.37611493 13.52065631 18.3125 15.375 C17.00963304 18.29392309 15.69082246 20.13466512 13.3125 22.25 C-11.32419458 46.27205771 -24.50071064 84.80526592 -25.06030273 118.49707031 C-25.08561508 157.41058586 -12.50134143 194.6831043 14.46484375 223.21875 C16.17305786 225.21226837 17.27259883 226.97941615 18.3125 229.375 C-1.2408343 250.83597667 -29.34945407 264.93077561 -57.6875 270.375 C-58.60684326 270.55232666 -59.52618652 270.72965332 -60.47338867 270.91235352 C-69.45459825 272.47566422 -78.29181487 272.73340453 -87.375 272.6875 C-88.49876541 272.68476578 -88.49876541 272.68476578 -89.64523315 272.68197632 C-100.91506686 272.63583098 -111.7186054 272.11445093 -122.6875 269.375 C-123.36377441 269.21402832 -124.04004883 269.05305664 -124.73681641 268.88720703 C-147.75061395 263.30404151 -168.91965374 251.93952033 -186.6875 236.375 C-187.88826172 235.35599609 -187.88826172 235.35599609 -189.11328125 234.31640625 C-194.1072128 230.010714 -198.53010314 225.48911999 -202.6875 220.375 C-203.44804687 219.45203125 -204.20859375 218.5290625 -204.9921875 217.578125 C-226.98117676 190.32948408 -238.17648253 157.60831661 -238 122.6875 C-237.99817719 121.93832306 -237.99635437 121.18914612 -237.99447632 120.41726685 C-237.94833098 109.14743314 -237.42695093 98.3438946 -234.6875 87.375 C-234.52652832 86.69872559 -234.36555664 86.02245117 -234.19970703 85.32568359 C-224.84902856 46.7822049 -199.800894 14.71774873 -166.16015625 -5.80078125 C-149.92673141 -15.45036431 -133.13480678 -21.90411614 -114.6875 -25.625 C-113.79579102 -25.80595215 -112.90408203 -25.9869043 -111.98535156 -26.17333984 C-73.57238911 -33.31265416 -31.45722665 -22.99105979 0 0 Z " fill="#FE8080" transform="translate(237.6875,239.625)"/>
<path d="M0 0 C0.74917694 0.00182281 1.49835388 0.00364563 2.27023315 0.00552368 C13.53862568 0.05166312 24.34576491 0.56804965 35.3125 3.3125 C35.99940918 3.47878906 36.68631836 3.64507812 37.39404297 3.81640625 C67.13288212 11.16773293 95.95914229 28.38845568 115.3125 52.3125 C116.08335937 53.25738281 116.85421875 54.20226563 117.6484375 55.17578125 C131.90695769 72.97811815 141.94150108 93.12590273 147.3125 115.3125 C147.6321875 116.58996094 147.951875 117.86742188 148.28125 119.18359375 C152.81322794 139.75741475 152.40700414 164.91385791 147.3125 185.3125 C147.15152832 185.98877441 146.99055664 186.66504883 146.82470703 187.36181641 C140.25287846 214.45088113 125.7858374 239.387973 105.3125 258.3125 C104.73628906 258.84746094 104.16007813 259.38242187 103.56640625 259.93359375 C73.12931657 287.33330234 34.40010046 302.08040531 -6.6875 300.3125 C-41.52995461 298.29359141 -73.46136056 285.76903723 -99.5625 262.375 C-100.08110596 261.91432129 -100.59971191 261.45364258 -101.1340332 260.97900391 C-102.38137223 259.82105144 -103.54304714 258.57223657 -104.6875 257.3125 C-104.6875 254.3125 -104.6875 254.3125 -103.359375 252.8671875 C-102.72515625 252.31289062 -102.0909375 251.75859375 -101.4375 251.1875 C-76.25839148 226.76465445 -63.05808944 188.6062702 -62.21899414 154.20117188 C-61.9039138 115.29729823 -74.72813228 77.80569551 -101.875 49.3984375 C-103.58071261 47.43539756 -104.65658832 45.6857446 -105.6875 43.3125 C-86.1341657 21.85152333 -58.02554593 7.75672439 -29.6875 2.3125 C-28.76815674 2.13517334 -27.84881348 1.95784668 -26.90161133 1.77514648 C-17.92040175 0.21183578 -9.08318513 -0.04590453 0 0 Z " fill="#29CBCB" transform="translate(361.6875,-0.3125)"/>
<path d="M0 0 C0.33 0 0.66 0 1 0 C1 69.63 1 139.26 1 211 C-28.82472807 181.17527193 -43.28778766 143.3939544 -43.31469727 101.38208008 C-42.8642361 63.17817512 -26.94133661 26.94133661 0 0 Z " fill="#FFED98" transform="translate(255,257)"/>
<path d="M0 0 C19.97032242 17.11741922 33.73521754 42.54646323 40 68 C40.19464844 68.77553223 40.38929688 69.55106445 40.58984375 70.35009766 C49.96287415 109.27421002 42.71896181 149.96900694 22 184 C16.10064116 193.30883126 9.24127941 203.83914706 0 210 C0 140.7 0 71.4 0 0 Z " fill="#282866" transform="translate(256,45)"/>
</svg>
